<svg width="17" height="17" viewBox="0 0 17 17" fill="none" xmlns="http://www.w3.org/2000/svg">
<g id="IMAGE">
<path id="Vector" d="M6.816 7.982C6.816 7.982 8.414 7.858 8.414 5.906C8.415 3.953 7.107 3 5.451 3H0V13.912H5.451C5.451 13.912 8.778 14.022 8.778 10.69C8.778 10.69 8.923 7.982 6.816 7.982ZM2.402 4.94H5.45C5.45 4.94 6.191 4.94 6.191 6.076C6.191 7.211 5.755 7.376 5.261 7.376H2.402V4.94ZM5.296 11.973H2.402V9.056H5.45C5.45 9.056 6.554 9.042 6.554 10.554C6.555 11.831 5.73 11.963 5.296 11.973ZM13.215 5.777C9.188 5.777 9.192 9.968 9.192 9.968C9.192 9.968 8.915 14.141 13.215 14.141C13.215 14.141 16.799 14.355 16.799 11.239H14.957C14.957 11.239 15.018 12.413 13.277 12.413C13.277 12.413 11.432 12.542 11.432 10.513H16.861C16.861 10.512 17.454 5.777 13.215 5.777ZM14.854 9.056H11.414C11.414 9.056 11.639 7.376 13.257 7.376C14.873 7.375 14.854 9.056 14.854 9.056ZM15.282 3.643H10.962V4.988H15.282V3.643Z" fill="black"/>
</g>
</svg>
