<svg width="16" height="16" viewBox="0 0 16 16" fill="none" xmlns="http://www.w3.org/2000/svg">
<g id="IMAGE" clip-path="url(#clip0_1_26)">
<path id="Vector" d="M16 3.31644C15.4107 3.57688 14.7787 3.75377 14.1147 3.83288C14.792 3.42666 15.312 2.7831 15.5574 2.01777C14.9245 2.39377 14.2214 2.66666 13.4738 2.81333C12.8747 2.17599 12.0214 1.77777 11.0774 1.77777C9.26491 1.77777 7.79469 3.24622 7.79469 5.05955C7.79469 5.31644 7.82314 5.5671 7.88003 5.80799C5.15114 5.67022 2.73247 4.36355 1.1138 2.37866C0.831138 2.8631 0.66936 3.42755 0.66936 4.02755C0.66936 5.1671 1.24892 6.17155 2.1298 6.75999C1.59203 6.7431 1.08536 6.59555 0.642693 6.35022C0.642693 6.36355 0.642693 6.37688 0.642693 6.3911C0.642693 7.98133 1.77425 9.30844 3.27558 9.60977C3.00003 9.68444 2.71025 9.72444 2.41069 9.72444C2.20003 9.72444 1.9938 9.70488 1.7938 9.66577C2.21069 10.9707 3.42403 11.9191 4.85958 11.9458C3.73692 12.8267 2.3218 13.3511 0.784027 13.3511C0.518249 13.3511 0.257804 13.3351 0.000915527 13.304C1.45336 14.2355 3.17869 14.7787 5.03292 14.7787C11.0702 14.7787 14.3725 9.77688 14.3725 5.43999C14.3725 5.29688 14.3689 5.15466 14.3618 5.01422C15.0027 4.55377 15.56 3.9751 16 3.31644Z" fill="white"/>
</g>
<defs>
<clipPath id="clip0_1_26">
<rect width="16" height="16" fill="white"/>
</clipPath>
</defs>
</svg>
